<?xml version="1.0" encoding="UTF-8"?>
<svg width="161px" height="67px" viewBox="0 0 161 67" version="1.1" xmlns="http://www.w3.org/2000/svg" xmlns:xlink="http://www.w3.org/1999/xlink">
    <!-- Generator: Sketch 50.2 (55047) - http://www.bohemiancoding.com/sketch -->
    <title>Combined Shape Copy 4</title>
    <desc>Created with Sketch.</desc>
    <defs></defs>
    <g id="Page-1" stroke="none" stroke-width="1" fill="none" fill-rule="evenodd">
        <g id="Desktop" transform="translate(-458.000000, -284.000000)" fill="#FFFFFF">
            <path d="M606.834152,319.28519 C613.763332,320.698544 619,327.196957 619,335 C619,343.113231 613.338719,349.816047 606,350.859017 L606,351 L475,351 L475,350.859017 C474.345725,350.952002 473.678118,351 473,351 C464.715729,351 458,343.836556 458,335 C458,327.139561 463.313989,320.603014 470.319027,319.254829 C471.826563,311.696136 478.498079,306 486.5,306 C486.66726,306 486.833939,306.002489 487.000001,306.007431 C487,306.004954 487,306.002477 487,306 C487,293.849736 496.849736,284 509,284 C518.369005,284 526.370145,289.856525 529.542237,298.108393 C531.390222,297.392586 533.399264,297 535.5,297 C538.226491,297 540.798526,297.661302 543.064459,298.832259 C547.071864,294.623289 552.729581,292 559,292 C566.492974,292 573.111036,295.745947 577.08364,301.467295 C579.540095,300.519586 582.209369,300 585,300 C596.231072,300 605.496528,308.415802 606.834152,319.28519 Z" id="Combined-Shape-Copy-4"></path>
        </g>
    </g>
</svg>
