<?xml version="1.0" encoding="UTF-8"?>
<svg width="128px" height="53px" viewBox="0 0 128 53" version="1.1" xmlns="http://www.w3.org/2000/svg" xmlns:xlink="http://www.w3.org/1999/xlink">
    <!-- Generator: Sketch 50.2 (55047) - http://www.bohemiancoding.com/sketch -->
    <title>Combined Shape Copy 2</title>
    <desc>Created with Sketch.</desc>
    <defs></defs>
    <g id="Page-1" stroke="none" stroke-width="1" fill="none" fill-rule="evenodd">
        <g id="Desktop" transform="translate(-119.000000, -153.000000)" fill="#FFFFFF">
            <path d="M236.822778,181 L238,181 L238,181.296201 C243.149187,182.536925 247,187.529655 247,193.5 C247,199.470345 243.149187,204.463075 238,205.703799 L238,206 L133,206 L133,205.703799 C132.19514,205.897735 131.358557,206 130.5,206 C124.148725,206 119,200.403559 119,193.5 C119,187.09666 123.429622,181.817879 129.139836,181.086515 C130.065127,174.814032 135.470375,170 142,170 C142.002335,170 142.00467,170.000001 142.007005,170.000002 C142.271672,160.566238 150.002241,153 159.5,153 C166.901239,153 173.229355,157.594589 175.787684,164.087102 C177.383332,163.387957 179.14636,163 181,163 C183.10935,163 185.101363,163.502377 186.862918,164.394008 C190.048286,161.069787 194.532431,159 199.5,159 C205.598082,159 210.967668,162.119064 214.100438,166.848873 C215.801076,166.29779 217.615762,166 219.5,166 C228.31618,166 235.609704,172.519265 236.822778,181 Z" id="Combined-Shape-Copy-2" transform="translate(183.000000, 179.500000) scale(-1, 1) translate(-183.000000, -179.500000) "></path>
        </g>
    </g>
</svg>
