<?xml version="1.0" encoding="UTF-8"?>
<svg width="100px" height="85px" viewBox="0 0 100 85" version="1.1" xmlns="http://www.w3.org/2000/svg" xmlns:xlink="http://www.w3.org/1999/xlink">
    <defs></defs>
    <g stroke="none" stroke-width="1" fill="none" fill-rule="evenodd">
        <g fill="#203E51">
            <polygon id="Line-2-Copy-5" fill-rule="nonzero" opacity="0.33" points="30.9601382 68.4485251 33.5514749 69.9601382 25.0398618 84.5514749 22.4485251 83.0398618"></polygon>
            <polygon id="Line-2-Copy-6" fill-rule="nonzero" opacity="0.33" points="69.9601382 0.44852511 72.5514749 1.96013819 64.0398618 16.5514749 61.4485251 15.0398618"></polygon>
            <polygon id="Line-2" fill-rule="nonzero" points="7.02300095 32.4330041 9.56699587 34.023001 2.97699905 44.5669959 0.433004134 42.976999"></polygon>
            <polygon id="Line-2-Copy" fill-rule="nonzero" transform="translate(5.000000, 47.500000) scale(-1, 1) translate(-5.000000, -47.500000) " points="7.02300095 41.4330041 9.56699587 43.023001 2.97699905 53.5669959 0.433004134 51.976999"></polygon>
            <polygon id="Line-2-Copy-2" fill-rule="nonzero" transform="translate(95.000000, 38.500000) scale(-1, 1) translate(-95.000000, -38.500000) " points="97.023001 32.4330041 99.5669959 34.023001 92.976999 44.5669959 90.4330041 42.976999"></polygon>
            <polygon id="Line-2-Copy-3" fill-rule="nonzero" points="97.023001 41.4330041 99.5669959 43.023001 92.976999 53.5669959 90.4330041 51.976999"></polygon>
            <path d="M33.89,50.588 C35.2580068,50.588 36.2719967,50.4080018 36.932,50.048 C37.5920033,49.6879982 37.922,49.112004 37.922,48.32 C37.922,47.5039959 37.5980032,46.8560024 36.95,46.376 C36.3019968,45.8959976 35.2340074,45.356003 33.746,44.756 C33.0259964,44.4679986 32.3360033,44.1740015 31.676,43.874 C31.0159967,43.5739985 30.4460024,43.220002 29.966,42.812 C29.4859976,42.403998 29.1020014,41.9120029 28.814,41.336 C28.5259986,40.7599971 28.382,40.0520042 28.382,39.212 C28.382,37.5559917 28.9939939,36.2420049 30.218,35.27 C31.4420061,34.2979951 33.1099894,33.812 35.222,33.812 C35.7500026,33.812 36.2779974,33.8419997 36.806,33.902 C37.3340026,33.9620003 37.8259977,34.0339996 38.282,34.118 C38.7380023,34.2020004 39.1399983,34.2919995 39.488,34.388 C39.8360017,34.4840005 40.105999,34.5679996 40.298,34.64 L39.686,37.52 C39.3259982,37.327999 38.7620038,37.130001 37.994,36.926 C37.2259962,36.721999 36.3020054,36.62 35.222,36.62 C34.2859953,36.62 33.4700035,36.8059981 32.774,37.178 C32.0779965,37.5500019 31.73,38.131996 31.73,38.924 C31.73,39.332002 31.8079992,39.6919984 31.964,40.004 C32.1200008,40.3160016 32.3599984,40.5979987 32.684,40.85 C33.0080016,41.1020013 33.4099976,41.3359989 33.89,41.552 C34.3700024,41.7680011 34.9459966,41.9959988 35.618,42.236 C36.5060044,42.5720017 37.2979965,42.9019984 37.994,43.226 C38.6900035,43.5500016 39.2839975,43.9279978 39.776,44.36 C40.2680025,44.7920022 40.6459987,45.3139969 40.91,45.926 C41.1740013,46.5380031 41.306,47.2879956 41.306,48.176 C41.306,49.9040086 40.6640064,51.2119956 39.38,52.1 C38.0959936,52.9880044 36.2660119,53.432 33.89,53.432 C32.2339917,53.432 30.9380047,53.2940014 30.002,53.018 C29.0659953,52.7419986 28.4300017,52.5320007 28.094,52.388 L28.706,49.508 C29.0900019,49.6520007 29.7019958,49.8679986 30.542,50.156 C31.3820042,50.4440014 32.497993,50.588 33.89,50.588 Z M52.502,33.884 C52.7900014,33.884 53.1199981,33.9019998 53.492,33.938 C53.8640019,33.9740002 54.2299982,34.0219997 54.59,34.082 C54.9500018,34.1420003 55.2799985,34.2019997 55.58,34.262 C55.8800015,34.3220003 56.1019993,34.3759998 56.246,34.424 L55.67,37.34 C55.4059987,37.2439995 54.9680031,37.1300007 54.356,36.998 C53.7439969,36.8659993 52.9580048,36.8 51.998,36.8 C51.3739969,36.8 50.7560031,36.8659993 50.144,36.998 C49.5319969,37.1300007 49.130001,37.2199998 48.938,37.268 L48.938,53 L45.59,53 L45.59,35.072 C46.382004,34.7839986 47.3659941,34.5140013 48.542,34.262 C49.7180059,34.0099987 51.0379927,33.884 52.502,33.884 Z M67.622,53.432 C66.1099924,53.432 64.7840057,53.1920024 63.644,52.712 C62.5039943,52.2319976 61.5440039,51.5600043 60.764,50.696 C59.9839961,49.8319957 59.4020019,48.8060059 59.018,47.618 C58.6339981,46.4299941 58.442,45.1160072 58.442,43.676 C58.442,42.2359928 58.6519979,40.916006 59.072,39.716 C59.4920021,38.515994 60.0859962,37.4780044 60.854,36.602 C61.6220038,35.7259956 62.5639944,35.0420025 63.68,34.55 C64.7960056,34.0579975 66.0379932,33.812 67.406,33.812 C68.2460042,33.812 69.0859958,33.8839993 69.926,34.028 C70.7660042,34.1720007 71.5699962,34.3999984 72.338,34.712 L71.582,37.556 C71.0779975,37.3159988 70.4960033,37.1240007 69.836,36.98 C69.1759967,36.8359993 68.4740037,36.764 67.73,36.764 C65.8579906,36.764 64.424005,37.3519941 63.428,38.528 C62.431995,39.7040059 61.934,41.4199887 61.934,43.676 C61.934,44.684005 62.0479989,45.6079958 62.276,46.448 C62.5040011,47.2880042 62.8639975,48.007997 63.356,48.608 C63.8480025,49.208003 64.4779962,49.6699984 65.246,49.994 C66.0140038,50.3180016 66.9499945,50.48 68.054,50.48 C68.9420044,50.48 69.7459964,50.3960008 70.466,50.228 C71.1860036,50.0599992 71.749998,49.880001 72.158,49.688 L72.626,52.496 C72.433999,52.6160006 72.1580018,52.7299995 71.798,52.838 C71.4379982,52.9460005 71.0300023,53.0419996 70.574,53.126 C70.1179977,53.2100004 69.6320026,53.2819997 69.116,53.342 C68.5999974,53.4020003 68.1020024,53.432 67.622,53.432 Z" id="src"></path>
        </g>
    </g>
</svg>
